<?xml version="1.0" standalone="no"?>
<!DOCTYPE svg PUBLIC "-//W3C//DTD SVG 20010904//EN"
 "http://www.w3.org/TR/2001/REC-SVG-20010904/DTD/svg10.dtd">
<svg version="1.0" xmlns="http://www.w3.org/2000/svg"
 width="960.000000pt" height="960.000000pt" viewBox="0 0 960.000000 960.000000"
 preserveAspectRatio="xMidYMid meet">
<metadata>
Created by potrace 1.14, written by Peter Selinger 2001-2017
</metadata>
<g transform="translate(0.000000,960.000000) scale(0.100000,-0.100000)"
fill="#000000" stroke="none">
<path d="M7725 9586 c-80 -20 -155 -64 -214 -126 -72 -74 -79 -83 -100 -133
-40 -94 -40 -94 -55 -235 -2 -18 -5 -34 -7 -35 -2 -1 -22 -11 -44 -22 -22 -11
-51 -30 -64 -42 -14 -12 -28 -20 -31 -18 -4 2 -30 20 -58 38 -101 68 -261 102
-372 78 -65 -14 -158 -50 -182 -71 -9 -8 -35 -28 -57 -45 -22 -16 -40 -33 -41
-37 0 -4 -14 -22 -31 -40 -40 -43 -83 -136 -101 -219 -17 -75 -21 -206 -7
-215 5 -3 7 -10 3 -15 -3 -5 4 -40 16 -77 20 -63 32 -90 88 -191 22 -40 203
-231 219 -231 5 0 26 -17 48 -38 22 -21 69 -62 105 -92 64 -55 129 -112 160
-140 8 -8 48 -41 86 -72 99 -81 159 -84 239 -13 26 23 70 61 151 132 11 10 49
43 84 73 35 30 78 69 95 85 18 17 57 50 86 75 87 73 158 148 197 209 20 31 40
58 43 61 3 3 8 11 10 18 3 10 15 4 39 -17 50 -44 91 -56 145 -42 24 6 55 21
67 34 13 12 55 49 93 83 105 91 179 156 192 168 6 6 37 34 69 61 127 109 198
188 236 264 13 25 26 48 29 51 3 3 16 38 28 79 29 91 33 272 8 298 -4 3 -7 14
-7 22 0 9 -9 33 -19 53 -11 19 -17 38 -14 42 3 3 -2 8 -11 12 -9 3 -13 10 -10
15 3 5 -27 42 -68 82 -80 80 -147 118 -240 137 -62 12 -186 7 -217 -9 -10 -6
-21 -7 -25 -4 -3 3 -6 2 -6 -3 0 -5 -9 -10 -19 -11 -11 -1 -42 -18 -70 -38
l-52 -36 -42 29 c-45 30 -84 49 -132 64 -51 16 -186 18 -240 4z"/>
<path d="M4689 7889 c-63 -44 -121 -85 -130 -92 -8 -7 -23 -16 -31 -22 -55
-35 -196 -135 -224 -159 -19 -15 -34 -25 -34 -22 0 3 -8 -1 -17 -10 -10 -9
-88 -65 -173 -124 -85 -60 -172 -121 -194 -137 -51 -37 -75 -54 -114 -78 -17
-11 -32 -23 -32 -27 0 -5 -4 -8 -10 -8 -5 0 -58 -35 -117 -78 -103 -74 -245
-175 -410 -289 -42 -28 -86 -61 -99 -72 -13 -12 -24 -18 -24 -13 0 4 -4 2 -8
-4 -4 -6 -59 -46 -122 -89 -63 -44 -117 -82 -120 -86 -3 -3 -23 -17 -45 -31
-22 -14 -94 -64 -160 -111 -66 -47 -142 -100 -169 -119 -26 -18 -57 -41 -67
-50 -11 -10 -21 -18 -23 -18 -3 0 -57 -37 -121 -82 -64 -46 -127 -89 -141 -96
-13 -7 -24 -17 -24 -23 0 -5 -5 -9 -11 -9 -6 0 -28 -13 -49 -30 -21 -16 -42
-30 -48 -30 -6 0 -12 -4 -14 -8 -1 -4 -41 -34 -88 -67 -47 -32 -87 -61 -90
-65 -3 -3 -32 -23 -65 -45 -33 -22 -61 -43 -63 -47 -2 -5 -10 -8 -17 -8 -7 0
-15 -4 -17 -8 -1 -4 -32 -28 -68 -52 -36 -25 -71 -50 -78 -57 -6 -6 -21 -15
-32 -18 -11 -3 -20 -10 -20 -15 0 -5 -11 -15 -24 -22 -20 -11 -130 -86 -221
-152 -11 -8 -81 -57 -155 -110 -74 -52 -140 -99 -147 -105 -7 -6 -15 -11 -18
-11 -3 0 -11 -5 -18 -10 -21 -19 -208 -150 -228 -160 -19 -11 -19 -11 3 -43
12 -18 25 -34 28 -37 3 -3 17 -21 30 -40 25 -35 46 -62 65 -84 6 -6 22 -27 35
-46 13 -19 29 -40 35 -46 5 -6 21 -26 35 -44 87 -116 111 -147 123 -160 7 -8
27 -33 43 -55 16 -22 47 -63 69 -91 22 -28 51 -65 65 -84 62 -82 81 -106 95
-121 8 -9 15 -21 15 -27 0 -7 3 -12 8 -12 4 0 16 -13 27 -29 l19 -30 36 22
c19 12 40 26 47 32 6 7 35 27 65 46 29 18 59 39 66 46 8 7 22 17 31 23 18 9
18 -70 17 -1953 l-1 -1962 -105 -2 c-58 -1 -109 -2 -115 -3 -5 -1 -22 -1 -37
0 l-26 1 0 -160 0 -161 3517 2 3516 3 1 158 1 158 -26 -1 c-14 -1 -30 -1 -36
0 -5 1 -57 2 -115 3 l-105 2 -2 1893 c-1 1186 2 1892 8 1892 5 0 9 -5 9 -11 0
-5 4 -8 9 -5 5 3 11 -1 15 -9 3 -8 12 -15 20 -15 8 0 16 -3 18 -7 2 -5 38 -34
80 -65 l77 -58 33 43 c18 23 40 49 48 57 8 9 26 31 40 50 14 18 30 38 35 44 6
6 66 81 134 166 68 85 129 160 135 165 6 6 24 28 41 50 31 42 53 69 70 89 6 6
46 56 90 111 43 55 87 108 98 119 10 10 15 22 10 26 -21 19 -224 170 -229 170
-3 0 -11 6 -18 13 -7 6 -25 21 -40 32 -16 11 -56 41 -90 66 -33 25 -124 93
-201 149 -77 57 -141 108 -143 112 -2 4 -8 8 -13 8 -5 0 -33 18 -62 40 -29 22
-56 44 -62 48 -5 4 -29 22 -51 40 -23 17 -46 32 -52 32 -6 0 -12 4 -14 8 -1 5
-30 28 -63 53 -33 24 -67 50 -75 58 -13 13 -15 117 -16 810 -1 438 -2 801 -3
807 -1 7 -116 10 -361 10 -234 -1 -360 3 -360 9 0 7 -3 7 -8 0 -10 -14 -232
-14 -232 0 0 7 -3 7 -8 0 -4 -6 -53 -10 -117 -10 l-110 0 -2 -355 c0 -195 -2
-358 -2 -363 -1 -7 -141 92 -169 120 -7 7 -17 13 -21 13 -4 0 -16 8 -27 18
-44 38 -103 82 -113 82 -5 0 -11 3 -13 8 -3 6 -67 56 -185 142 -26 19 -50 37
-53 41 -3 3 -26 20 -52 37 -25 18 -52 38 -60 45 -7 7 -28 22 -45 32 -18 11
-33 23 -33 27 0 4 -6 8 -14 8 -8 0 -16 3 -18 8 -1 4 -43 36 -92 72 -49 36 -99
75 -113 87 -13 13 -27 23 -31 24 -4 1 -59 40 -122 87 -98 73 -193 144 -344
255 -16 12 -42 32 -57 45 -15 12 -31 22 -37 22 -6 0 -12 3 -14 8 -3 7 -146
115 -224 170 l-31 21 -114 -80z"/>
</g>
</svg>
